<?xml version="1.0" standalone="no"?>
<!DOCTYPE svg PUBLIC "-//W3C//DTD SVG 20010904//EN"
 "http://www.w3.org/TR/2001/REC-SVG-20010904/DTD/svg10.dtd">
<svg version="1.0" xmlns="http://www.w3.org/2000/svg"
 width="500.000000pt" height="500.000000pt" viewBox="0 0 500.000000 500.000000"
 preserveAspectRatio="xMidYMid meet">

<g transform="translate(0.000000,500.000000) scale(0.100000,-0.100000)"
fill="#000000" stroke="none">
<path d="M2388 3739 c-596 -49 -1075 -531 -1127 -1133 -39 -452 172 -890 549
-1142 235 -156 506 -225 796 -203 680 54 1192 660 1133 1343 -34 392 -236 727
-569 945 -151 99 -359 172 -525 186 -143 12 -162 12 -257 4z m320 -104 c164
-29 252 -77 266 -146 3 -17 6 -103 6 -190 l0 -159 -480 0 -480 0 0 159 c0 87
3 173 6 190 14 68 102 117 257 146 99 18 324 18 425 0z m510 -233 c72 -54 151
-136 213 -220 l31 -42 -186 0 -186 0 0 176 0 176 28 -17 c15 -10 60 -42 100
-73z m-1318 -92 l0 -170 -181 0 -181 0 28 38 c67 90 153 177 233 237 47 36 89
65 93 65 5 0 8 -76 8 -170z m1692 -440 c40 -119 58 -233 58 -370 0 -320 -116
-598 -343 -822 -165 -162 -371 -270 -600 -313 -102 -19 -312 -19 -414 0 -478
91 -846 463 -930 940 -11 66 -14 129 -10 240 6 170 32 293 92 421 l34 74 209
0 210 0 4 -377 c5 -419 7 -434 74 -572 145 -295 537 -410 819 -240 118 71 218
195 267 329 22 63 23 75 26 462 l3 398 212 2 212 3 24 -45 c13 -25 37 -83 53
-130z m-612 -50 l0 -220 -480 0 -480 0 0 220 0 220 480 0 480 0 0 -220z m-6
-452 c-31 -187 -130 -334 -275 -409 -60 -31 -71 -33 -187 -37 l-122 -4 -75 35
c-153 73 -261 220 -284 388 l-8 59 478 0 479 0 -6 -32z"/>
</g>
</svg>
